# xmcd
#
# Track frame offsets: 
#        150
#        25747
#        45477
#        60725
#        90732
#        108790
#        132412
#        150507
#        165510
#        187330
#
# Disc length: 2921 seconds
#
# Revision: 5
# Processed by: cddbd v1.5.1PL2 Copyright (c) Steve Scherf et al.
# Submitted via: ExactAudioCopy v0.95b1
#
DISCID=7a0b670a
DTITLE=Hugo Race and True Spirit - Rue Morgue Blues
DYEAR=1989
DGENRE=Indie
TTITLE0=Blonde Hustling
TTITLE1=Turkyneck Piana
TTITLE2=Long Time Ago
TTITLE3=Cyprus Grove Blues
TTITLE4=John the Revelator
TTITLE5=Rue Morgue Blues
TTITLE6=Please Don't Go
TTITLE7=Certified Fool
TTITLE8=Slugger Brass
TTITLE9=Mojo Hand
EXTD=Normal 118 CD - www.helixed.net
EXTT0=
EXTT1=
EXTT2=
EXTT3=
EXTT4=
EXTT5=
EXTT6=
EXTT7=
EXTT8=
EXTT9=
PLAYORDER=
